<svg xmlns="http://www.w3.org/2000/svg" xmlns:xlink="http://www.w3.org/1999/xlink" width="1080" zoomAndPan="magnify" viewBox="0 0 810 809.999993" height="1080" preserveAspectRatio="xMidYMid meet" version="1.0"><defs><clipPath id="d69938bcfd"><path d="M 87.675781 150.429688 L 722.175781 150.429688 L 722.175781 659.679688 L 87.675781 659.679688 Z M 87.675781 150.429688 " clip-rule="nonzero"/></clipPath></defs><rect x="-81" width="972" fill="#ffffff" y="-80.999999" height="971.999992" fill-opacity="1"/><rect x="-81" width="972" fill="#f3f0ea" y="-80.999999" height="971.999992" fill-opacity="1"/><path fill="#000000" d="M 453.582031 408.78125 C 491 401.5625 526.394531 392.617188 557.933594 376.570312 C 598.804688 355.769531 615.664062 335.933594 620.964844 291.179688 C 626.574219 243.796875 597.296875 214.210938 566.792969 196.320312 C 545.253906 183.6875 495.484375 171.101562 460.128906 171.167969 C 424.765625 171.230469 384.035156 179.132812 355.75 190.1875 C 327.464844 201.246094 305.085938 212.796875 279.933594 234.003906 C 254.78125 255.210938 240.074219 275.1875 237.5 306.5625 C 234.929688 337.941406 244.953125 349.375 253.445312 358.570312 C 261.722656 367.535156 274.355469 371.3125 274.355469 371.3125 L 277.175781 378.011719 C 277.175781 378.011719 259.261719 372.621094 244.953125 360.359375 C 223.871094 342.273438 217.238281 311.957031 225.144531 284.191406 C 237.238281 241.707031 280.695312 208.5625 329.0625 187.113281 C 376.488281 166.066406 425.46875 157.164062 472.710938 158.597656 C 528.464844 160.296875 591.136719 182.28125 619.75 216.753906 C 660.980469 266.429688 640.257812 318.53125 628.753906 341.675781 C 602.238281 395 524.386719 409.605469 479.507812 419.117188 C 421.917969 431.316406 384.382812 437.289062 350.34375 446.96875 C 338.378906 450.371094 312.304688 459.140625 306.738281 470.914062 C 299.019531 487.253906 315.039062 499.140625 313.765625 498.601562 C 299.726562 492.566406 293.933594 485.21875 294.949219 475.019531 C 295.972656 464.832031 300.550781 458.464844 316.304688 448.976562 C 334.804688 437.835938 353.898438 432.625 372.261719 427.527344 C 390.621094 422.4375 434.613281 412.449219 453.582031 408.78125 " fill-opacity="1" fill-rule="evenodd"/><path fill="#000000" d="M 494.921875 186.796875 L 523.738281 186.796875 C 523.738281 186.796875 479.117188 253.367188 433.300781 344.597656 C 411.226562 388.546875 388.371094 433.722656 352.402344 479.574219 C 316.429688 525.429688 285.320312 554.980469 259.824219 569.757812 C 234.324219 584.53125 210.097656 594.210938 173.128906 596.507812 C 148.1875 598.046875 126.628906 589.792969 114.988281 578.925781 C 103.257812 567.972656 97.90625 545.296875 97.90625 545.296875 L 113.457031 533.578125 C 113.457031 533.578125 113.96875 548.355469 120.089844 559.050781 C 126.207031 569.757812 135.386719 578.414062 156.296875 581.984375 C 177.207031 585.550781 205.570312 577.960938 223.613281 570.265625 C 242.734375 562.109375 268.492188 550.90625 299.089844 517.785156 C 329.6875 484.671875 365.347656 439.515625 383.746094 408.246094 C 418.21875 349.65625 494.921875 186.796875 494.921875 186.796875 " fill-opacity="1" fill-rule="evenodd"/><path fill="#000000" d="M 494.921875 186.796875 C 494.921875 186.796875 480.894531 184.414062 456.375 194.949219 C 431.855469 205.472656 425.019531 212.078125 414.324219 221.9375 C 403.632812 231.796875 398.542969 239.683594 396.402344 242.949219 C 396.402344 242.949219 392.964844 248.484375 392.136719 248.464844 C 391.3125 248.441406 389.539062 246.921875 388.648438 244.09375 C 387.761719 241.261719 387.386719 234.6875 387.386719 234.6875 C 387.386719 234.6875 384.8125 236.816406 383.957031 242.097656 C 383.105469 247.378906 384.371094 249.988281 384.46875 251.65625 C 384.5625 253.324219 384.820312 254.414062 383.667969 255.566406 C 382.511719 256.71875 374.792969 261.273438 365.289062 264.105469 C 355.785156 266.949219 347.46875 266.570312 341.46875 265.957031 C 335.46875 265.335938 331.550781 263.179688 326.921875 264.554688 C 322.292969 265.933594 322.203125 267.460938 321.867188 272.386719 C 321.527344 277.3125 321.996094 278.859375 323.292969 282.902344 C 324.589844 286.929688 327.089844 292.667969 325.582031 295.691406 C 324.078125 298.710938 322.113281 298.785156 318.375 299.253906 C 314.644531 299.730469 312.855469 298.597656 309.796875 300.394531 C 306.738281 302.183594 306.484375 304.421875 305.824219 307 C 305.167969 309.578125 305.726562 312.09375 306.148438 313.726562 C 306.566406 315.355469 307.707031 316.699219 306.945312 317.828125 C 306.1875 318.957031 305.972656 318.289062 302.753906 318.550781 C 299.535156 318.804688 298.496094 319.105469 296.035156 320.625 C 293.574219 322.148438 293.246094 323.617188 293.046875 325.558594 C 292.839844 327.492188 294.238281 329.527344 294.226562 331.535156 C 294.210938 333.546875 293.742188 334.351562 292.363281 335.796875 C 290.996094 337.238281 281.964844 339.589844 277.652344 343.902344 C 273.332031 348.210938 266.789062 354.753906 268.234375 365.785156 C 269.679688 376.828125 275.757812 381.078125 280.773438 385.152344 C 285.789062 389.230469 306.355469 401.492188 322.421875 408.757812 C 338.484375 416.011719 346.003906 417.289062 352.402344 421.753906 C 358.605469 426.074219 360.667969 429.140625 361.050781 435.378906 C 361.480469 442.382812 360.796875 443.917969 358.882812 448.496094 C 357.035156 452.921875 381.472656 425.316406 381.472656 425.316406 L 412.320312 355.515625 C 412.320312 355.515625 410.304688 330.8125 412.089844 309.917969 C 413.875 289.027344 416.425781 278.089844 422.90625 262.640625 C 433.210938 238.074219 449.953125 222.855469 460.308594 212.523438 C 474.859375 198 494.921875 186.796875 494.921875 186.796875 " fill-opacity="1" fill-rule="evenodd"/><path fill="#000000" d="M 535.171875 443.882812 C 572.339844 438.625 599.855469 435.96875 628.753906 426.929688 C 670.015625 414.019531 689.050781 387.867188 691.773438 355.601562 C 695.203125 314.925781 663.320312 279.25 637.226562 263.941406 C 618.789062 253.132812 586.417969 240.882812 546.910156 240.457031 C 516.65625 240.125 485.824219 246.121094 461.625 255.582031 C 437.425781 265.046875 417.683594 275.667969 395.367188 292.820312 C 378.089844 306.101562 358.71875 326.476562 354.375 337.941406 C 347.238281 356.796875 348.007812 375.007812 351.570312 384.8125 C 357.183594 400.257812 367.929688 403.226562 367.929688 403.226562 L 369.929688 413.601562 C 369.929688 413.601562 357.945312 409.265625 350.550781 400.351562 C 335.386719 382.0625 336.496094 355.710938 347.75 332.589844 C 361.261719 304.820312 394.195312 278.671875 434.769531 258.597656 C 475.347656 238.535156 512.492188 229.921875 562.90625 231.066406 C 613.699219 232.21875 667.71875 260.257812 687.179688 284.625 C 721.648438 327.777344 713.703125 367.4375 705.058594 387.796875 C 688.101562 427.710938 634.675781 447.824219 578.441406 454.695312 C 553.71875 457.714844 512.832031 461.140625 459.007812 463.273438 C 446.65625 463.761719 415 461.574219 409.371094 472.695312 C 403.757812 483.785156 420.730469 487.296875 418.464844 487.976562 C 410.433594 490.398438 400.019531 485.953125 400.101562 475.757812 C 400.160156 468.796875 402.917969 464.792969 410.730469 459.832031 C 427.179688 449.390625 468.511719 450.851562 484.683594 448.75 C 509.902344 445.480469 521.429688 445.828125 535.171875 443.882812 " fill-opacity="1" fill-rule="evenodd"/><path fill="#000000" d="M 554.253906 258.285156 L 579.925781 257.558594 C 579.925781 257.558594 551.117188 306.1875 509.25 384.410156 C 489.394531 421.507812 467.082031 460.117188 436.300781 499.34375 C 405.527344 538.574219 381.488281 563.128906 357.09375 576.507812 C 334.984375 588.613281 314.554688 597.421875 282.921875 599.382812 C 261.585938 600.699219 243.140625 593.644531 233.183594 584.339844 C 223.148438 574.972656 218.566406 555.578125 218.566406 555.578125 L 231.875 545.550781 C 231.875 545.550781 232.3125 558.1875 237.546875 567.347656 C 242.78125 576.507812 250.636719 583.90625 268.523438 586.957031 C 286.414062 590.015625 310.679688 583.515625 326.117188 576.941406 C 342.480469 569.960938 364.511719 560.371094 390.691406 532.042969 C 416.867188 503.710938 447.378906 465.078125 463.125 438.324219 C 492.617188 388.195312 554.253906 258.285156 554.253906 258.285156 " fill-opacity="1" fill-rule="evenodd"/><path fill="#000000" d="M 470.515625 476.644531 C 470.515625 476.644531 488.332031 513.855469 510.605469 539.695312 C 526.417969 558.03125 553.011719 572.40625 574.085938 577.835938 C 595.167969 583.273438 616.175781 583.515625 616.175781 583.515625 L 628.753906 606.609375 C 628.753906 606.609375 592.964844 611.027344 544.222656 589.28125 C 524.738281 580.589844 499.898438 557.609375 485.621094 536.640625 C 471.339844 515.671875 461.035156 486.722656 452.46875 474.222656 C 449.078125 469.269531 438.316406 461.746094 431.6875 457.800781 C 426.71875 454.832031 410.351562 448.980469 396.527344 454.09375 C 388.085938 457.214844 379.121094 467.507812 380.015625 477.519531 C 381.476562 493.894531 392.839844 498.621094 392.839844 498.621094 C 392.839844 498.621094 377.722656 493.679688 373.136719 480.019531 C 369.355469 468.757812 376.84375 453.160156 390.648438 445.960938 C 405.035156 438.464844 413.160156 438.195312 422.859375 440.175781 C 435.558594 442.769531 447.007812 449.632812 455.019531 457.15625 C 461.269531 463.015625 470.515625 476.644531 470.515625 476.644531 " fill-opacity="1" fill-rule="evenodd"/><g clip-path="url(#d69938bcfd)"><path stroke-linecap="butt" transform="matrix(1.065494, 0, 0, -1.064476, 49.331977, 684.453154)" fill="none" stroke-linejoin="miter" d="M 668.000067 0.0000268358 L 0.0000508983 0.0000268358 L 0.0000508983 538.667337 L 668.000067 538.667337 Z M 668.000067 0.0000268358 " stroke="#010101" stroke-width="0.5" stroke-opacity="1" stroke-miterlimit="10"/></g></svg>